# xmcd CD database file
#
# Track frame offsets:
#	150
#	22671
#	40139
#	55686
#	74764
#	85791
#	102282
#	121037
#	139594
#	171990
#	190835
#	216933
#	235513
#	248930
#
# Disc length: 3525 seconds
#
# Revision: 3
# Processed by: cddbd v1.5.2PL0 Copyright (c) Steve Scherf et al.
# Submitted via: CDex 1.77
#
DISCID=b60dc30e
DTITLE=Ana POPOVIC - Can You Stand the Heat
DYEAR=2013
DGENRE=Blues
TTITLE0=Can You Stand the Heat
TTITLE1=Can't You See What You're Doing To Me
TTITLE2=Mo' Better Love
TTITLE3=Object of Obsession
TTITLE4=Boys' Night Out
TTITLE5=Hot Southern Night W/ Lucky PETERSON)
TTITLE6=Every Kind of People
TTITLE7=Ana's Shuffle
TTITLE8=Blues for Mrs. Pauline/Leave My Boy Alone
TTITLE9=Leave Well Enough Alone Aka: High Maintenance You
TTITLE10=Tribe
TTITLE11=Rain Fall Down
TTITLE12=Growing Up Too Soon
TTITLE13=Mo' Better Love (W/Tommy SIMS)
EXTD=YEAR: 2013
EXTT0=
EXTT1=
EXTT2=
EXTT3=
EXTT4=
EXTT5=
EXTT6=
EXTT7=
EXTT8=
EXTT9=
EXTT10=
EXTT11=
EXTT12=
EXTT13=
PLAYORDER=
